<?xml version="1.0" encoding="UTF-8"?>
<svg width="512px" height="512px" viewBox="0 0 512 512" version="1.1" xmlns="http://www.w3.org/2000/svg" xmlns:xlink="http://www.w3.org/1999/xlink">
    <title>clock</title>
    <defs>
        <linearGradient x1="43.376%" y1="2.242%" x2="50.316%" y2="89.03%" id="linearGradient-1">
            <stop stop-color="#FFEA83" offset="0%"></stop>
            <stop stop-color="#FFDD35" offset="8.333%"></stop>
            <stop stop-color="#FFA800" offset="100%"></stop>
        </linearGradient>
        <linearGradient x1="15.0445107%" y1="3.41241616%" x2="84.9554893%" y2="96.5875838%" id="linearGradient-2">
            <stop stop-color="#41D1FF" offset="0%"></stop>
            <stop stop-color="#BD34FE" offset="100%"></stop>
        </linearGradient>
    </defs>
    <g id="Page-1" stroke="none" stroke-width="1" fill="none" fill-rule="evenodd">
        <g id="clock" fill-rule="nonzero">
            <path d="M301.83504,129.399415 L196.624675,150.015407 C194.895592,150.354153 193.614716,151.819817 193.510641,153.578694 L187.039031,262.884356 C186.966872,264.099849 187.471933,265.278236 188.401925,266.064204 C189.331916,266.850171 190.578006,267.15174 191.764465,266.87798 L221.056954,260.117902 C223.797399,259.485401 226.274203,261.899546 225.710272,264.655359 L217.007765,307.271752 C216.422553,310.139879 219.114526,312.591856 221.915264,311.740639 L240.008345,306.244381 C242.812631,305.393165 245.50815,307.852235 244.914663,310.722726 L231.084758,377.662632 C230.219355,381.850144 235.788912,384.13306 238.110842,380.543763 L239.663129,378.14617 L325.394823,207.051644 C326.831251,204.187064 324.354447,200.920521 321.209675,201.528195 L291.056511,207.347205 C288.223851,207.893403 285.813253,205.254631 286.612451,202.483449 L306.292105,134.261989 C307.092485,131.483713 304.672429,128.843759 301.836222,129.399415 L301.83504,129.399415 Z" id="Path" fill="url(#linearGradient-1)"></path>
            <path d="M120.2,120.2 C155,85.5 203,64 256,64 C362,64 448,150 448,256 C448,362 362,448 256,448 C215.2,448 177.4,435.3 146.3,413.6 C131.8,403.5 111.9,407 101.7,421.5 C91.5,436 95.1,455.9 109.6,466.1 C151.2,495 201.7,512 256,512 C397.4,512 512,397.4 512,256 C512,114.6 397.4,0 256,0 C185.3,0 121.3,28.7 75,75 L41,41 C25.9,25.9 0,36.6 0,57.9 L0,168 C0,181.3 10.7,192 24,192 L134.1,192 C155.5,192 166.2,166.1 151.1,151 L120.3,120.2 L120.2,120.2 Z" id="Path" fill="url(#linearGradient-2)"></path>
        </g>
    </g>
</svg>